# xmcd CD database file
#
# Track frame offsets:
#	150
#	19623
#	48379
#	68696
#	88152
#	107074
#	127007
#	154159
#	165710
#	184997
#	207420
#	227695
#	245238
#	269049
#	308310
#
# Disc length: 4333 seconds
#
# Revision: 1
# Processed by: cddbd v1.4PL0 Copyright (c) Steve Scherf et al.
# Submitted via: CDex 1.50Beta3
#
DISCID=d310eb0f
DTITLE=Vital - Praise and Worship 2001
DYEAR=2001
DGENRE=New Age
TTITLE0=You Are The Only One
TTITLE1=I Will Magnify
TTITLE2=Lost in The Shuffle
TTITLE3=Lord I Come to You
TTITLE4=Wont Let Go
TTITLE5=Come Now is The Time
TTITLE6=Heartbeat
TTITLE7=Change My Heart Oh God
TTITLE8=Rock of Ages
TTITLE9=I Heard The Voice of Jesus Say
TTITLE10=Jesus is Exalted to The Highest Place
TTITLE11=All I Want to Do
TTITLE12=Oh Magnify The Lord With Me
TTITLE13=Amazing Grace
TTITLE14=Great is Thy Faithfulness
EXTD=YEAR: 2001
EXTT0=
EXTT1=
EXTT2=
EXTT3=
EXTT4=
EXTT5=
EXTT6=
EXTT7=
EXTT8=
EXTT9=
EXTT10=
EXTT11=
EXTT12=
EXTT13=
EXTT14=
PLAYORDER=
